<svg enable-background="new 0 0 100 87.9" viewBox="0 0 100 87.9" xmlns="http://www.w3.org/2000/svg"><path d="m76.8 22.6v-11.9h-14.3c-2.6 0-4.8-2.1-4.8-4.7 0-.2 0-.3 0-.5.3-2.5 2.4-4.3 4.9-4.3h18.8c2.6 0 4.8 2.1 4.8 4.7v16.6c0 2.6-2.1 4.8-4.8 4.8-2.5 0-4.6-2.1-4.6-4.7zm-71.8 27.1c2.6.3 4.9-1.6 5.2-4.3 0-.2 0-.3 0-.5v-15.2h14.3c2.6 0 4.7-2.1 4.8-4.7 0-2.6-2.1-4.8-4.8-4.8h-14.2v-9.5h28.5v14.3c0 2.6 2.1 4.8 4.8 4.8h14.3 4.8c2.6 0 4.7-2.1 4.7-4.7s-2.1-4.7-4.7-4.7h-14.4v-14.4c0-2.6-2.1-4.8-4.8-4.8h-38c-2.6 0-4.7 2.1-4.7 4.8v38.9c-.1 2.4 1.7 4.5 4.2 4.8zm94.3 12.2-.1 19.4c0 2.9-2.4 5.3-5.3 5.3h-30.9c-2.9 0-5.3-2.4-5.3-5.3l.1-19.4c0-2.5 1.7-4.6 4.1-5.2v-3.7-.3c0-4.5 1.8-8.7 5-11.8s7.5-4.8 12-4.7c9 .4 16 7.8 16 16.8v3.7c2.5.4 4.3 2.6 4.4 5.2zm-13.7-9c.1-3.7-2.7-6.9-6.4-7.4-2-.2-4.1.4-5.6 1.8s-2.4 3.3-2.4 5.4v3.9h14.4zm-80.1 33.8h38c2.6 0 4.8-2.1 4.8-4.7 0 0 0 0 0-.1v-.4c0-.1 0-.2 0-.3v-18.2c0-2.6-2.1-4.8-4.8-4.8h-14.2v-9.5h14.1c2.5 0 4.6-1.8 4.9-4.3.3-2.6-1.6-4.9-4.3-5.2-.2 0-.3 0-.5 0h-19c-2.6 0-4.8 2.1-4.8 4.7v19c0 2.6 2.1 4.8 4.8 4.8h14.3v9.5h-28.5v-13c0-2.5-1.8-4.6-4.3-4.9-2.6-.3-4.9 1.6-5.2 4.2v.5 18c-.1 2.6 2 4.7 4.7 4.7z"/></svg>