<svg viewBox="0 0 1000 161.02" xmlns="http://www.w3.org/2000/svg"><path d="m279.19 51.1h29c10.74 0 16.73 6.74 16.73 15 0 7.37-4.74 12.36-10.24 13.48 6.25 1 11.37 7.25 11.37 14.49 0 9.11-6.12 15.86-17.11 15.86h-29.75zm26.81 24.34c5.24 0 8.24-3.12 8.24-7.61s-3-7.62-8.24-7.62h-16.44v15.23zm.37 25.35c5.62 0 9-3.12 9-8.24 0-4.37-3.12-8.12-9-8.12h-17v16.36z" fill="#7a7656"/><path d="m345.12 51.1h10.36v49.69h26v9.12h-36.23v-58.81z" fill="#837e5b"/><path d="m424.41 50.1c17.59 0 30.09 12.9 30.09 30.46s-12.5 30.44-30.09 30.44-30.09-12.86-30.09-30.47 12.36-30.43 30.09-30.43zm0 9.11c-11.86 0-19.48 9.12-19.48 21.23s7.62 21.23 19.48 21.23 19.48-9.12 19.48-21.23-7.74-21.23-19.48-21.23z" fill="#8d8860"/><path d="m470.61 80.56c0-18.1 13.48-30.46 30.46-30.46 12.36 0 19.73 6.12 24.1 13.23l-8.86 4.5a17.76 17.76 0 0 0 -15.24-8.62c-11.23 0-19.85 8.87-19.85 21.23s8.62 21.22 19.85 21.22a17.35 17.35 0 0 0 15.24-8.61l8.86 4.49c-4.49 7.12-11.74 13.24-24.1 13.24-16.98.12-30.46-12.24-30.46-30.22z" fill="#969165"/><path d="m557.64 85.06-5.12 6v18.73h-10.37v-58.79h10.37v28.1l23-28.1h12.74l-23.88 27.69 25.72 31.09h-12.74z" fill="#a09b6a"/><path d="m599.59 80.56c0-18.1 13.48-30.46 30.46-30.46 12.37 0 19.73 6.12 24.1 13.23l-8.86 4.5a17.75 17.75 0 0 0 -15.24-8.62c-11.23 0-19.85 8.87-19.85 21.23s8.62 21.22 19.85 21.22a17.34 17.34 0 0 0 15.24-8.61l8.86 4.49c-4.49 7.12-11.73 13.24-24.1 13.24-16.98.12-30.46-12.24-30.46-30.22z" fill="#a9a470"/><path d="m712.09 84.18h-30.59v25.73h-10.37v-58.81h10.37v24.09h30.59v-24.09h10.36v58.81h-10.36z" fill="#b2ae76"/><path d="m781 98.54h-27.83l-4.37 11.24h-11.24l23.1-58.78h12.86l23.1 58.81h-11.24zm-25-9h22.1l-11-29.71z" fill="#bcb77b"/><path d="m822.22 67v42.83h-10.37v-58.83h10.62l30.09 41.71v-41.71h10.36v58.81h-10z" fill="#c5c181"/><path d="m912.49 50.1a27.72 27.72 0 0 1 23.73 12.23l-8.5 4.75a18.84 18.84 0 0 0 -15.23-7.87c-11.61 0-20.23 8.87-20.23 21.23s8.62 21.35 20.23 21.35a22.54 22.54 0 0 0 14-5.24v-9.12h-17.62v-9.11h27.84v22.1a31.66 31.66 0 0 1 -24.22 10.58c-17 0-30.84-12.11-30.84-30.47s13.74-30.43 30.84-30.43z" fill="#cfca86"/><path d="m956.32 51.1h40.33v9.11h-30v15.23h29.35v9.12h-29.32v16.36h30v9.08h-40.36z" fill="#d8d48b"/><path d="m30.36 2.38h21.23v21.23h-21.23z" fill="#d8d48b"/><path d="m165.25 2.34h21.23v21.23h-21.23z" fill="#d8d48b"/><path d="m192.23 2.33h21.23v21.23h-21.23z" fill="#d8d48b"/><path d="m30.35 29.32h21.23v21.23h-21.23z" fill="#d8d48b"/><path d="m111.28 29.42h21.23v21.23h-21.23z" fill="#d8d48b"/><path d="m192.32 56.36h21.23v21.23h-21.23z" fill="#d8d48b"/><path d="m30.37 83.42h21.23v21.23h-21.23z" fill="#d8d48b"/><path d="m111.3 83.4h21.23v21.23h-21.23z" fill="#d8d48b"/><path d="m138.28 83.39h21.23v21.23h-21.23z" fill="#d8d48b"/><path d="m165.26 83.38h21.23v21.23h-21.23z" fill="#d8d48b"/><path d="m30.37 110.4h21.23v21.23h-21.23z" fill="#d8d48b"/><path d="m138.29 110.37h21.23v21.23h-21.23z" fill="#d8d48b"/><path d="m165.27 110.36h21.23v21.23h-21.23z" fill="#d8d48b"/><path d="m192.24 110.35h21.23v21.23h-21.23z" fill="#d8d48b"/><path d="m30.42 137.42h21.23v21.23h-21.23z" fill="#d8d48b"/><path d="m138.33 137.38h21.23v21.23h-21.23z" fill="#d8d48b"/><path d="m192.29 137.37h21.23v21.23h-21.23z" fill="#d8d48b"/><path d="m30.45 56.41h21.23v21.23h-21.23z" fill="#d8d48b"/><g fill="#7a7656"><path d="m57.37 2.41h21.23v21.23h-21.23z"/><path d="m84.35 2.4h21.23v21.23h-21.23z"/><path d="m111.33 2.39h21.23v21.23h-21.23z"/><path d="m138.31 2.38h21.23v21.23h-21.23z"/><path d="m3.42 2.42h21.23v21.23h-21.23z"/><path d="m57.36 29.48h21.23v21.23h-21.23z"/><path d="m84.34 29.47h21.23v21.23h-21.23z"/><path d="m138.3 29.45h21.23v21.23h-21.23z"/><path d="m165.28 29.44h21.23v21.23h-21.23z"/><path d="m192.25 29.44h21.23v21.23h-21.23z"/><path d="m3.41 29.37h21.23v21.23h-21.23z"/><path d="m57.34 56.44h21.23v21.23h-21.23z"/><path d="m84.32 56.43h21.23v21.23h-21.23z"/><path d="m111.29 56.42h21.23v21.23h-21.23z"/><path d="m138.27 56.41h21.23v21.23h-21.23z"/><path d="m165.25 56.4h21.23v21.23h-21.23z"/><path d="m3.38 56.45h21.23v21.23h-21.23z"/><path d="m57.38 83.45h21.23v21.23h-21.23z"/><path d="m84.36 83.44h21.23v21.23h-21.23z"/><path d="m192.27 83.41h21.23v21.23h-21.23z"/><path d="m3.42 83.47h21.23v21.23h-21.23z"/><path d="m57.39 110.43h21.23v21.23h-21.23z"/><path d="m84.37 110.42h21.23v21.23h-21.23z"/><path d="m111.35 110.41h21.23v21.23h-21.23z"/><path d="m3.43 110.45h21.23v21.23h-21.23z"/><path d="m57.31 137.44h21.23v21.23h-21.23z"/><path d="m84.29 137.43h21.23v21.23h-21.23z"/><path d="m111.26 137.43h21.23v21.23h-21.23z"/><path d="m165.22 137.41h21.23v21.23h-21.23z"/><path d="m3.35 137.46h21.23v21.23h-21.23z"/></g></svg>