<svg enable-background="new 0 0 720.8 63.8" viewBox="0 0 720.8 63.8" xmlns="http://www.w3.org/2000/svg"><path d="m1.7 2.4h29c10.7 0 16.7 6.7 16.7 15 0 7.4-4.7 12.4-10.2 13.5 6.2 1 11.4 7.2 11.4 14.5 0 9.1-6.1 15.9-17.1 15.9h-29.8zm26.8 24.4c5.2 0 8.2-3.1 8.2-7.6s-3-7.6-8.2-7.6h-16.5v15.2zm.3 25.3c5.6 0 9-3.1 9-8.2 0-4.4-3.1-8.1-9-8.1h-17v16.4h17z" fill="#7a7656"/><path d="m67.6 2.4h10.4v49.7h26v9.1h-36.3v-58.8z" fill="#837e5b"/><path d="m146.9 1.4c17.6 0 30.1 12.9 30.1 30.5s-12.5 30.4-30.1 30.4-30.1-12.9-30.1-30.5 12.3-30.4 30.1-30.4zm0 9.2c-11.9 0-19.5 9.1-19.5 21.2s7.6 21.2 19.5 21.2 19.5-9.1 19.5-21.2-7.8-21.2-19.5-21.2z" fill="#8d8860"/><path d="m193.1 31.9c0-18.1 13.5-30.5 30.5-30.5 12.4 0 19.7 6.1 24.1 13.2l-8.9 4.5c-3.2-5.4-9-8.6-15.2-8.6-11.2 0-19.9 8.9-19.9 21.2s8.6 21.3 19.8 21.3c6.3.1 12.1-3.2 15.2-8.6l8.9 4.5c-4.5 7.1-11.7 13.2-24.1 13.2-16.9.1-30.4-12.2-30.4-30.2z" fill="#969165"/><path d="m280.1 36.4-5.1 6v18.7h-10.4v-58.8h10.4v28.1l23-28.1h12.7l-23.8 27.7 25.7 31.1h-12.7z" fill="#a09b6a"/><path d="m322.1 31.9c0-18.1 13.5-30.5 30.5-30.5 12.4 0 19.7 6.1 24.1 13.2l-8.9 4.5c-3.2-5.4-9-8.6-15.2-8.6-11.2 0-19.8 8.9-19.8 21.2s8.5 21.3 19.7 21.3c6.3.1 12.1-3.2 15.2-8.6l8.9 4.5c-4.5 7.1-11.7 13.2-24.1 13.2-17 .1-30.4-12.2-30.4-30.2z" fill="#a9a470"/><path d="m434.6 35.5h-30.6v25.7h-10.4v-58.8h10.4v24.1h30.6v-24.1h10.4v58.8h-10.4z" fill="#b2ae76"/><path d="m503.5 49.9h-27.8l-4.4 11.2h-11.3l23.1-58.8h12.9l23.1 58.8h-11.2zm-25-9h22.1l-11-29.7z" fill="#bcb77b"/><path d="m544.7 18.3v42.8h-10.4v-58.8h10.6l30.1 41.8v-41.8h10.4v58.8h-10z" fill="#c5c181"/><path d="m635 1.4c9.5-.3 18.4 4.4 23.7 12.2l-8.5 4.8c-3.5-4.9-9.2-7.8-15.2-7.9-11.6 0-20.2 8.9-20.2 21.2s8.6 21.3 20.2 21.3c5.1-.1 10.1-2 14-5.2v-9.1h-17.6v-9.1h27.8v22.1c-6.1 6.9-15 10.8-24.2 10.6-17 0-30.8-12.1-30.8-30.5s13.7-30.4 30.8-30.4z" fill="#cfca86"/><path d="m678.8 2.4h40.3v9.1h-30v15.2h29.3v9.1h-29.3v16.4h30v9.1h-40.4v-58.9z" fill="#d8d48b"/></svg>